<svg xmlns="http://www.w3.org/2000/svg" xmlns:xlink="http://www.w3.org/1999/xlink">

<symbol id="github" fill-rule="evenodd" clip-rule="evenodd" stroke-linejoin="round" stroke-miterlimit="1.414"><path d="M8 0C3.58 0 0 3.582 0 8c0 3.535 2.292 6.533 5.47 7.59.4.075.547-.172.547-.385 0-.19-.007-.693-.01-1.36-2.226.483-2.695-1.073-2.695-1.073-.364-.924-.89-1.17-.89-1.17-.725-.496.056-.486.056-.486.803.056 1.225.824 1.225.824.714 1.223 1.873.87 2.33.665.072-.517.278-.87.507-1.07-1.777-.2-3.644-.888-3.644-3.953 0-.873.31-1.587.823-2.147-.09-.202-.36-1.015.07-2.117 0 0 .67-.215 2.2.82.64-.178 1.32-.266 2-.27.68.004 1.36.092 2 .27 1.52-1.035 2.19-.82 2.19-.82.43 1.102.16 1.915.08 2.117.51.56.82 1.274.82 2.147 0 3.073-1.87 3.75-3.65 3.947.28.24.54.73.54 1.48 0 1.07-.01 1.93-.01 2.19 0 .21.14.46.55.38C13.71 14.53 16 11.53 16 8c0-4.418-3.582-8-8-8"/></symbol>

<symbol id="linkedin" fill-rule="evenodd" clip-rule="evenodd" stroke-linejoin="round" stroke-miterlimit="1.414"><path d="M13.632 13.635h-2.37V9.922c0-.886-.018-2.025-1.234-2.025-1.235 0-1.424.964-1.424 1.96v3.778h-2.37V6H8.51v1.04h.03c.318-.6 1.092-1.233 2.247-1.233 2.4 0 2.845 1.58 2.845 3.637v4.188zM3.558 4.955c-.762 0-1.376-.617-1.376-1.377 0-.758.614-1.375 1.376-1.375.76 0 1.376.617 1.376 1.375 0 .76-.617 1.377-1.376 1.377zm1.188 8.68H2.37V6h2.376v7.635zM14.816 0H1.18C.528 0 0 .516 0 1.153v13.694C0 15.484.528 16 1.18 16h13.635c.652 0 1.185-.516 1.185-1.153V1.153C16 .516 15.467 0 14.815 0z" fill-rule="nonzero"/></symbol>

<symbol id="phone" viewBox="0 0 24 24" fill="none" stroke="#828282" stroke-width="2" stroke-linecap="round" stroke-linejoin="round"><path d="M22 16.92v3a2 2 0 0 1-2.18 2 19.79 19.79 0 0 1-8.63-3.07 19.5 19.5 0 0 1-6-6 19.79 19.79 0 0 1-3.07-8.67A2 2 0 0 1 4.11 2h3a2 2 0 0 1 2 1.72 12.84 12.84 0 0 0 .7 2.81 2 2 0 0 1-.45 2.11L8.09 9.91a16 16 0 0 0 6 6l1.27-1.27a2 2 0 0 1 2.11-.45 12.84 12.84 0 0 0 2.81.7A2 2 0 0 1 22 16.92z"></path></symbol>             

<symbol id="email" viewBox="0 0 24 24" fill="none" stroke="#828282" stroke-width="2" stroke-linecap="round" stroke-linejoin="round"><path d="M4 4h16c1.1 0 2 .9 2 2v12c0 1.1-.9 2-2 2H4c-1.1 0-2-.9-2-2V6c0-1.1.9-2 2-2z"></path><polyline points="22,6 12,13 2,6"></polyline></symbol>

<symbol id="calendar" width="24" height="24" viewBox="0 0 24 24" fill="none" stroke="#000000" stroke-width="2" stroke-linecap="round" stroke-linejoin="round"><rect x="3" y="4" width="18" height="18" rx="2" ry="2"></rect><line x1="16" y1="2" x2="16" y2="6"></line><line x1="8" y1="2" x2="8" y2="6"></line><line x1="3" y1="10" x2="21" y2="10"></line></symbol>

<symbol id="location" width="24" height="24" viewBox="0 0 24 24" fill="none" stroke="#000000" stroke-width="2" stroke-linecap="round" stroke-linejoin="round"><path d="M12 22s-8-4.5-8-11.8A8 8 0 0 1 12 2a8 8 0 0 1 8 8.2c0 7.3-8 11.8-8 11.8z"/><circle cx="12" cy="10" r="3"/></symbol>

<symbol id="house" width="24" height="24" viewBox="0 0 24 24" fill="none" stroke="#000000" stroke-width="2" stroke-linecap="round" stroke-linejoin="round"><path d="M20 9v11a2 2 0 0 1-2 2H6a2 2 0 0 1-2-2V9"/><path d="M9 22V12h6v10M2 10.6L12 2l10 8.6"/></symbol>

<symbol id="pencil" width="24" height="24" viewBox="0 0 24 24" fill="none" stroke="#000000" stroke-width="2" stroke-linecap="round" stroke-linejoin="round"><polygon points="16 3 21 8 8 21 3 21 3 16 16 3"></polygon></symbol>

<symbol id="question" width="24" height="24" viewBox="0 0 24 24" fill="none" stroke="#000000" stroke-width="2" stroke-linecap="round" stroke-linejoin="round"><circle cx="12" cy="12" r="10"></circle><path d="M9.09 9a3 3 0 0 1 5.83 1c0 2-3 3-3 3"></path><line x1="12" y1="17" x2="12.01" y2="17"></line></symbol>

<symbol id="code" width="24" height="24" viewBox="0 0 24 24" fill="none" stroke="#000000" stroke-width="2" stroke-linecap="round" stroke-linejoin="round"><polyline points="16 18 22 12 16 6"></polyline><polyline points="8 6 2 12 8 18"></polyline></symbol>

<symbol id="computer" width="24" height="24" viewBox="0 0 24 24" fill="none" stroke="#000000" stroke-width="2" stroke-linecap="round" stroke-linejoin="round"><rect x="2" y="3" width="20" height="14" rx="2" ry="2"></rect><line x1="8" y1="21" x2="16" y2="21"></line><line x1="12" y1="17" x2="12" y2="21"></line></symbol>

<symbol id="speech" width="24" height="24" viewBox="0 0 24 24" fill="none" stroke="#000000" stroke-width="2" stroke-linecap="round" stroke-linejoin="round"><path d="M21 11.5a8.38 8.38 0 0 1-.9 3.8 8.5 8.5 0 0 1-7.6 4.7 8.38 8.38 0 0 1-3.8-.9L3 21l1.9-5.7a8.38 8.38 0 0 1-.9-3.8 8.5 8.5 0 0 1 4.7-7.6 8.38 8.38 0 0 1 3.8-.9h.5a8.48 8.48 0 0 1 8 8v.5z"></path></symbol>

<symbol id="flag" width="24" height="24" viewBox="0 0 24 24" fill="none" stroke="#000000" stroke-width="2" stroke-linecap="round" stroke-linejoin="round"><path d="M4 15s1-1 4-1 5 2 8 2 4-1 4-1V3s-1 1-4 1-5-2-8-2-4 1-4 1z"></path><line x1="4" y1="22" x2="4" y2="15"></line></symbol>

</svg>

